# xmcd CD database file
#
# Track frame offsets:
#	150
#	16895
#	35125
#	51515
#	76359
#	95888
#	111310
#	130815
#	149413
#	169263
#	187432
#	202237
#	220288
#	240163
#	254964
#	273329
#	295203
#	317159
#	337307
#
# Disc length: 4752 seconds
#
# Revision: 0
# Processed by: cddbd v1.5.2PL0 Copyright (c) Steve Scherf et al.
# Submitted via: NeoAudio 9.9.9
#
DISCID=44128e13
DTITLE=Various Artist - Salsa Y Merengue party
DYEAR=2005
DGENRE=Salsa
TTITLE0=Miami Band - Bailando contigo
TTITLE1=Willy Chirino - Hechizo de luna
TTITLE2=Miami Band - El Cuarto de tula
TTITLE3=Grupo Niche - Sin novia y sin carro
TTITLE4=Ricardo Lemvo - Amame mama
TTITLE5=Tito Nieves - Ya no quenda nada
TTITLE6=N'Klabe - Dime
TTITLE7=Andres Cepeda - Tengo Ganas
TTITLE8=Tito Nieves - El capitan
TTITLE9=Climax - El za za za
TTITLE10=Juan Luis Guerra - Las Avispas
TTITLE11=Rubby Perez - Tonto Corazon
TTITLE12=Conjunto Clasico - Vecenita
TTITLE13=Grupo Stars - Morena
TTITLE14=Willy Chirino Y Johnny Ventura - Alla se quedo
TTITLE15=Grupo Niche - ni como amiga no como amante
TTITLE16=Rey Ruiz - Mi tentacion
TTITLE17=Monchy Y Alexandra - Perdidos (bachata)
TTITLE18=Bacilos - la olla
EXTD=YEAR: 2005
EXTT0=
EXTT1=
EXTT2=
EXTT3=
EXTT4=
EXTT5=
EXTT6=
EXTT7=
EXTT8=
EXTT9=
EXTT10=
EXTT11=
EXTT12=
EXTT13=
EXTT14=
EXTT15=
EXTT16=
EXTT17=
EXTT18=
PLAYORDER=
